# xmcd CD Database Entry
#
# Track frame offsets:
# 150
# 27683
# 52369
# 69620
# 89757
# 102263
# 122825
# 150272
# 176551
# 200522
# 223026
# 240422
# 264748
#
# Disc length: 3633 seconds
#
# Revision: 1
# Processed by: cddbd v1.4PL0 Copyright (c) Steve Scherf et al.
# Submitted via: tcd 2.0b
#
DISCID=c40e2f0d
DTITLE=Cassandra Wilson Belly of the Sun
DYEAR=1900
DGENRE=
TTITLE0=The Weight
TTITLE1=Justice
TTITLE2=Darkness on the Delta
TTITLE3=Waters of March
TTITLE4=You Gotta Move
TTITLE5=Only a Dream in Rio
TTITLE6=Just Another Parade
TTITLE7=Wichita Lineman
TTITLE8=Shelter from the Storm
TTITLE9=Drunk AS Cooter Brown
TTITLE10=Show me a Love
TTITLE11=Road so Clear
TTITLE12=Hot Tamales
EXTD=
EXTT0=
EXTT1=
EXTT2=
EXTT3=
EXTT4=
EXTT5=
EXTT6=
EXTT7=
EXTT8=
EXTT9=
EXTT10=
EXTT11=
EXTT12=
PLAYORDER=
